<svg version="1.0" xmlns="http://www.w3.org/2000/svg" width="100px" height="160px" viewBox="0 0 10000 16000" preserveAspectRatio="xMidYMid meet">
  <g id="layer101" fill="#8B4513" stroke="none">
  <path d="M2575 15796 c-63 -28 -94 -92 -95 -197 0 -36 16 -219 35 -405 176 -1690 256 -2444 262 -2474 6 -25 15 -37 35 -44 23 -8 54 4 235 92 304 148 533 236 812 313 459 126 962 183 1417 159 660 -34 1215 -176 1804 -461 196 -95 229 -103 242 -59 17 57 300 2836 296 2917 -3 92 -20 126 -79 155 -32 17 -171 18 -2484 18 -2011 -1 -2455 -3 -2480 -14z"/>
  <path d="M4785 12844 c-22 -2 -92 -9 -155 -15 -389 -37 -854 -155 -1224 -310 -950 -400 -1745 -1149 -2201 -2074 -229 -465 -386 -1023 -421 -1490 -7 -103 1 -119 62 -119 36 0 41 3 161 107 142 125 309 223 553 327 1087 463 3063 658 4869 480 1258 -125 2275 -426 2699 -801 127 -112 160 -127 213 -99 24 13 25 59 4 228 -197 1587 -1261 2934 -2770 3504 -303 115 -651 198 -1015 244 -118 14 -677 28 -775 18z"/>
  <path d="M4575 9040 c-1277 -50 -2273 -254 -2576 -528 -73 -66 -99 -114 -99 -182 0 -66 24 -112 91 -176 225 -212 864 -387 1744 -478 861 -90 1915 -86 2765 10 765 86 1372 248 1605 428 118 92 156 166 134 260 -10 43 -23 62 -83 122 -56 56 -94 82 -181 126 -406 207 -1183 352 -2185 408 -254 14 -960 20 -1215 10z"/>
  <path d="M646 6924 c-37 -12 -66 -32 -111 -77 -106 -106 -95 193 -95 -2679 l0 -2519 21 -50 c30 -69 123 -154 192 -174 47 -13 529 -15 4357 -13 l4305 3 43 23 c66 35 119 88 149 150 l28 57 0 2530 0 2530 -28 57 c-30 62 -83 115 -149 150 l-43 23 -4310 2 c-3823 1 -4316 0 -4359 -13z m1837 -4094 c76 -23 174 -86 217 -138 17 -20 48 -71 68 -111 37 -74 37 -77 37 -195 0 -118 -1 -123 -36 -196 -42 -88 -105 -154 -188 -199 -108 -57 -129 -59 -837 -72 l-650 -13 -45 22 c-46 22 -79 67 -93 125 -9 38 9 100 40 136 48 57 73 61 484 69 206 4 381 11 388 16 10 6 11 25 7 74 -8 79 12 176 51 254 53 105 173 200 293 234 72 19 189 17 264 -6z"/>
  <path d="M637 995 c-97 -36 -207 -135 -229 -207 -17 -57 4 -79 140 -147 285 -142 720 -337 927 -415 l110 -41 3410 0 c3315 0 3412 1 3465 19 240 82 1061 456 1117 508 27 25 30 66 8 107 -22 43 -118 126 -183 158 l-57 28 -4335 2 c-3665 1 -4341 -1 -4373 -12z"/>
  </g>
</svg>